<svg viewBox="0 0 100 100" xmlns="http://www.w3.org/2000/svg">
  <defs>
    <linearGradient id="ng" x1="0" y1="0" x2="1" y2="1"><stop offset="0%" stop-color="#FF6B2B"/><stop offset="100%" stop-color="#FF9A5C"/></linearGradient>
    <linearGradient id="nb" x1="0" y1="0" x2="0" y2="1"><stop offset="0%" stop-color="#3B5BDB"/><stop offset="100%" stop-color="#2244BB"/></linearGradient>
  </defs>
  <circle cx="50" cy="50" r="48" fill="url(#ng)"/>
  <g transform="translate(-8 -8) scale(1.16)">
  <ellipse cx="35" cy="62" rx="14" ry="8" fill="url(#nb)" transform="rotate(-30 35 62)"/>
  <ellipse cx="65" cy="62" rx="14" ry="8" fill="url(#nb)" transform="rotate(30 65 62)"/>
  <ellipse cx="50" cy="65" rx="18" ry="22" fill="url(#nb)"/>
  <ellipse cx="50" cy="71" rx="11" ry="14" fill="white" opacity="0.18"/>
  <polygon points="42,32 38,22 46,28" fill="url(#nb)"/>
  <polygon points="58,32 62,22 54,28" fill="url(#nb)"/>
  <ellipse cx="50" cy="42" rx="17" ry="15" fill="url(#nb)"/>
  <ellipse cx="43" cy="40" rx="5" ry="5" fill="white"/>
  <ellipse cx="57" cy="40" rx="5" ry="5" fill="white"/>
  <circle cx="43" cy="40" r="3.5" fill="#FFD43B"/>
  <circle cx="57" cy="40" r="3.5" fill="#FFD43B"/>
  <circle cx="43.5" cy="40" r="2" fill="#1A1A2E"/>
  <circle cx="57.5" cy="40" r="2" fill="#1A1A2E"/>
  <circle cx="44.5" cy="39" r="0.8" fill="white"/>
  <circle cx="58.5" cy="39" r="0.8" fill="white"/>
  <polygon points="50,46 47,51 53,51" fill="#FFD43B"/>
  <rect x="41" y="26" width="18" height="3" rx="1" fill="#FFD43B"/>
  <polygon points="50,19 60,26 40,26" fill="#FFD43B"/>
  </g>
</svg>
